<?xml version="1.0" encoding="utf-8"?>
<svg xmlns="http://www.w3.org/2000/svg" xmlns:xlink="http://www.w3.org/1999/xlink" version= "1.1" width="1920px" height="1300px" viewBox="-600 64 1920 1300">
<g id="layer1">
<g style="fill:rgb(255,201,77); fill-opacity:1.0; stroke-linejoin: miter">
<path d="M-600.00085,62.405304C-600.4236,62.405304,-600.829,62.573223,-601.12787,62.872124C-601.42676,63.171024,-601.59467,63.576416,-601.59467,63.999123L-601.5937,1364.0001C-601.5937,1364.8804,-600.8801,1365.594,-599.9999,1365.594L1320.0011,1365.595C1320.4238,1365.595,1320.8291,1365.427,1321.128,1365.128C1321.427,1364.8291,1321.595,1364.4238,1321.595,1364.0011L1321.594,64.00012C1321.594,63.11988,1320.8804,62.406303,1320.0001,62.406303L-600.00085,62.405304 Z"/>
</g>
<g style="fill:rgb(60,70,79); fill-opacity:1.0; stroke-linejoin: miter">
<path d="M-85.5249,519.0126L-85.5249,519.01355L-75.3728,509.82922L400.7456,500.55652L871.452,506.08264C871.452,721.6532,882.4938,931.6986,882.4938,1147.2687C561.3279,1147.2689,240.16211,1147.2694,-81.003296,1147.2699C-81.00305,931.69885,-87.02942,739.6991,-87.0293,524.1278L-62.606567,501.21423L-80.4563,516.2374 Z"/>
</g>
<g style="fill:rgb(191,201,210); fill-opacity:1.0; stroke-linejoin: miter">
<path d="M186.84787,753.8269L186.84787,753.8269L262.3702,685.24194C264.6636,683.15924,268.18076,683.21765,270.4037,685.3753L270.4037,685.3753L345.8322,758.5908L336.5905,759.9948L399.6175,644.2879C401.16794,641.44147,404.7324,640.39087,407.57886,641.94135C410.42532,643.49176,411.4759,647.0563,409.92535,649.9027L409.92535,649.9027L346.89844,765.6096C346.02075,767.22095,344.43994,768.3291,342.6259,768.6047C340.81192,768.8803,338.97333,768.2916,337.65674,767.01355L337.65674,767.01355L262.2281,693.79785L270.26157,693.93134L194.73924,762.5163C192.33972,764.6957,188.62796,764.5169,186.4488,762.1173C184.26967,759.7178,184.44833,756.00604,186.84787,753.8269 Z"/>
</g>
<g style="fill:rgb(255,0,54); fill-opacity:1.0; stroke-linejoin: miter">
<path d="M224.16478,763.13684C224.16481,782.58496,208.39899,798.3507,188.95078,798.3507C169.50256,798.35077,153.73663,782.5849,153.73662,763.1369C153.73657,743.6887,169.50243,727.9229,188.95062,727.92285C208.39883,727.92285,224.16475,743.6888,224.16478,763.13684 Z"/>
</g>
<g style="fill:rgb(255,255,255); fill-opacity:1.0; stroke-linejoin: miter">
<path d="M300.4618,692.709C300.46182,712.1571,284.69595,727.9229,265.24783,727.923C245.7996,727.92285,230.03369,712.1571,230.03366,692.7089C230.0336,673.2608,245.79947,657.49493,265.24768,657.495C284.69583,657.495,300.46176,673.2608,300.4618,692.709 Z"/>
</g>
<g style="fill:rgb(255,255,255); fill-opacity:1.0; stroke-linejoin: miter">
<path d="M376.75894,763.1369C376.75894,782.58484,360.9932,798.3507,341.545,798.3507C322.0968,798.35065,306.33096,782.5849,306.3309,763.13684C306.33087,743.6888,322.09668,727.9229,341.5449,727.9229C360.99304,727.923,376.7589,743.6888,376.75894,763.1369 Z"/>
</g>
<g style="fill:rgb(58,84,98); fill-opacity:0.99607843; stroke-linejoin: miter">
<path d="M592.46313,765.91565L533.3882,748.373L474.31305,730.8302L592.46313,765.91565"/>
</g>
<g style="fill:rgb(58,84,98); fill-opacity:0.99607843; stroke-linejoin: miter">
<path d="M462.58258,729.5858L525.50604,755.6272L588.4295,781.66846L462.58258,729.5858"/>
</g>
<g style="fill:rgb(191,201,210); fill-opacity:1.0; stroke-linejoin: miter">
<path d="M451.78003,723.93463L451.78003,723.93463L451.78003,723.9354L447.88245,718.8002L586.63666,757.55115C589.4729,758.3432,591.1299,761.28436,590.3378,764.1205C589.5458,766.95654,586.60455,768.6135,583.7685,767.8215L583.7685,767.8215L445.01416,729.07056C442.71002,728.42706,441.11664,726.32776,441.11664,723.9354L441.11664,723.9354L441.11664,723.93463C441.11664,720.99005,443.50363,718.60284,446.4483,718.6029C449.3929,718.6029,451.78003,720.99005,451.78003,723.93463 Z"/>
</g>
<g style="fill:rgb(191,201,210); fill-opacity:1.0; stroke-linejoin: miter">
<path d="M592.95447,799.8233L592.95447,799.8233L592.95447,799.82404C592.95447,802.1295,591.4727,804.17377,589.28174,804.8911L589.28174,804.8911L458.5947,847.6786C455.79623,848.59485,452.785,847.069,451.86874,844.27057C450.95245,841.4722,452.47833,838.46075,455.2768,837.54474L455.2768,837.54474L585.9638,794.75714L582.2912,799.82404L582.2912,799.8233C582.2912,796.8787,584.67816,794.4917,587.6228,794.4917C590.5674,794.4916,592.95447,796.8787,592.95447,799.8233 Z"/>
</g>
<g style="fill:rgb(255,0,54); fill-opacity:1.0; stroke-linejoin: miter">
<path d="M489.52167,728.0884C489.52173,747.53644,473.75595,763.3023,454.30783,763.30225C434.8597,763.3023,419.09387,747.5365,419.0938,728.0884C419.0938,708.6403,434.8596,692.8745,454.3077,692.87445C473.75583,692.8746,489.52164,708.64026,489.52167,728.0884 Z"/>
</g>
<g style="fill:rgb(191,201,210); fill-opacity:1.0; stroke-linejoin: miter">
<path d="M462.26712,637.5506L462.26712,637.5506L462.26712,637.5514L456.93546,632.2197L610.2106,632.22064C613.09656,632.2207,615.4586,634.517,615.5401,637.40186L615.5401,637.40186L618.767,751.6802C618.8502,754.62354,616.5314,757.07697,613.588,757.1601C610.64453,757.2432,608.1911,754.9245,608.108,751.981L608.108,751.981L604.88104,637.7029L610.2105,642.88403L456.93546,642.8831C453.9908,642.8831,451.60373,640.49603,451.60373,637.55133L451.60373,637.55133L451.60373,637.5506C451.60373,634.6059,453.9908,632.21893,456.93542,632.21893C459.88007,632.219,462.26712,634.60596,462.26712,637.5506 Z"/>
</g>
<g style="fill:rgb(255,255,255); fill-opacity:1.0; stroke-linejoin: miter">
<path d="M524.4275,725.70123L614.7089,725.7018L704.9902,725.7023Q704.9902,777.9666,704.99023,830.23083Q614.709,830.23145,524.4277,830.23206Q524.4276,777.9667,524.4275,725.70123"/>
</g>
<g style="fill:rgb(255,0,54); fill-opacity:1.0; stroke-linejoin: miter">
<path d="M488.76035,629.73254C488.76035,660.67957,463.67294,685.7671,432.72598,685.76697C401.77902,685.76697,376.6915,660.6795,376.69144,629.7324C376.69138,598.7855,401.77884,573.698,432.7258,573.698C463.67282,573.6981,488.76022,598.7857,488.76035,629.73254 Z"/>
</g>
<g style="fill:rgb(191,201,210); fill-opacity:1.0; stroke-linejoin: miter">
<path d="M726.6044,908.72473L726.6044,908.72473L651.08185,977.3099C648.7884,979.39264,645.2713,979.3342,643.04834,977.1765L643.04834,977.1765L567.61993,903.9608L576.8617,902.55695L513.83453,1018.2639C512.2841,1021.1104,508.71967,1022.161,505.8732,1020.61053C503.02673,1019.0601,501.97617,1015.49554,503.52667,1012.64905L503.52667,1012.64905L566.55383,896.9421C567.4315,895.33075,569.0123,894.22253,570.82635,893.94696C572.6403,893.6713,574.4789,894.26,575.79553,895.53815L575.79553,895.53815L651.224,968.754L643.1905,968.62054L718.713,900.03534C721.1125,897.85596,724.8243,898.03467,727.0035,900.4343C729.18256,902.83386,729.0039,906.5456,726.6044,908.72473 Z"/>
</g>
<g style="fill:rgb(255,0,54); fill-opacity:1.0; stroke-linejoin: miter">
<path d="M689.2874,899.4148C689.28754,879.9667,705.05334,864.2008,724.5015,864.2008C743.94977,864.2008,759.7157,879.9667,759.71564,899.4146C759.7156,918.86285,743.94965,934.6288,724.5015,934.6289C705.0532,934.6288,689.28735,918.86285,689.2874,899.4148 Z"/>
</g>
<g style="fill:rgb(255,255,255); fill-opacity:1.0; stroke-linejoin: miter">
<path d="M612.99023,969.84283C612.99023,950.3946,628.75604,934.6287,648.2042,934.6288C667.65247,934.62885,683.4184,950.3946,683.41833,969.8429C683.41833,989.29095,667.65247,1005.0568,648.2042,1005.0568C628.75604,1005.0567,612.9902,989.29095,612.99023,969.84283 Z"/>
</g>
<g style="fill:rgb(255,255,255); fill-opacity:1.0; stroke-linejoin: miter">
<path d="M536.6933,899.41473C536.6933,879.96686,552.4591,864.2009,571.9072,864.20087C591.3555,864.2009,607.12134,879.9668,607.1213,899.4148C607.1213,918.86285,591.35547,934.6288,571.9072,934.62885C552.4591,934.62885,536.69324,918.86285,536.6933,899.41473 Z"/>
</g>
<g style="fill:rgb(58,84,98); fill-opacity:0.99607843; stroke-linejoin: miter">
<path d="M320.98923,896.63617L380.0641,914.17883L439.13916,931.72156L320.98923,896.63617"/>
</g>
<g style="fill:rgb(58,84,98); fill-opacity:0.99607843; stroke-linejoin: miter">
<path d="M450.8696,932.9659L387.94626,906.9246L325.02283,880.8833L450.8696,932.9659"/>
</g>
<g style="fill:rgb(191,201,210); fill-opacity:1.0; stroke-linejoin: miter">
<path d="M461.67215,938.6171L461.67215,938.6171L461.67215,938.61633L465.56976,943.7516L326.81567,905.0006C323.97943,904.20856,322.32248,901.2675,323.11453,898.43134C323.9066,895.5953,326.8478,893.93823,329.68387,894.73035L329.68387,894.73035L468.43805,933.4812C470.7422,934.12476,472.33557,936.22406,472.33557,938.6164L472.33557,938.6164L472.33557,938.6172C472.3356,941.5618,469.94855,943.9489,467.00385,943.9488C464.05923,943.9488,461.67218,941.5617,461.67215,938.6171 Z"/>
</g>
<g style="fill:rgb(191,201,210); fill-opacity:1.0; stroke-linejoin: miter">
<path d="M321.1076,861.24426L321.1076,861.24426L321.10773,861.2435C321.42944,858.9606,323.18195,857.1431,325.45157,856.7386L325.45157,856.7386L460.83032,832.604C463.72928,832.08716,466.49817,834.0183,467.015,836.91724C467.53177,839.81586,465.6007,842.58514,462.70178,843.1016L462.70178,843.1016L327.32303,867.2364L331.66663,862.73145L331.6665,862.7322C331.25565,865.64795,328.55905,867.67865,325.64322,867.2677C322.72745,866.85693,320.69675,864.16003,321.1076,861.24426 Z"/>
</g>
<g style="fill:rgb(255,0,54); fill-opacity:1.0; stroke-linejoin: miter">
<path d="M423.93057,934.46344C423.93054,915.0153,439.6963,899.2494,459.14438,899.2494C478.59256,899.24945,494.35837,915.01526,494.3584,934.4634C494.3584,953.9115,478.5926,969.6774,459.14444,969.67737C439.69635,969.6773,423.9306,953.91156,423.93057,934.46344 Z"/>
</g>
<g style="fill:rgb(191,201,210); fill-opacity:1.0; stroke-linejoin: miter">
<path d="M451.18497,1025.0011L451.18497,1025.0011L451.18497,1025.0004L456.51663,1030.3322L303.24185,1030.3312C300.35587,1030.3312,297.9938,1028.0348,297.91232,1025.15L297.91232,1025.15L294.68536,910.8716C294.60217,907.9282,296.92096,905.47473,299.8643,905.3916C302.80777,905.3085,305.26126,907.62726,305.3444,910.57074L305.3444,910.57074L308.5714,1024.8491L303.24188,1019.66785L456.51666,1019.6687C459.4613,1019.6687,461.8484,1022.0558,461.84833,1025.0004L461.84833,1025.0004L461.84833,1025.0011C461.84833,1027.9459,459.46127,1030.3329,456.51666,1030.3329C453.57205,1030.3329,451.18497,1027.9458,451.18497,1025.0011 Z"/>
</g>
<g style="fill:rgb(255,0,54); fill-opacity:1.0; stroke-linejoin: miter">
<path d="M438.2721,1024.0464C435.64334,997.52893,455.00873,973.90137,481.52612,971.2728C508.04337,968.64404,531.6709,988.0095,534.2996,1014.5271C536.9283,1041.0443,517.56274,1064.672,491.04553,1067.3008C464.52817,1069.9292,440.9008,1050.5635,438.2721,1024.0464 Z"/>
</g>
<g style="fill:rgb(255,0,54); fill-opacity:1.0; stroke-linejoin: miter">
<path d="M493.26337,833.6805C493.2634,853.12854,477.49762,868.8944,458.04944,868.8944C438.60132,868.8945,422.8355,853.12854,422.83548,833.6805C422.83542,814.2324,438.60123,798.46674,458.04935,798.4667C477.49753,798.4667,493.2633,814.2324,493.26337,833.6805 Z"/>
</g>
<g style="fill:rgb(191,201,210); fill-opacity:1.0; stroke-linejoin: miter">
<path d="M236.17757,879.06586L236.17757,879.06586L236.17757,879.0666L241.50923,873.7348L88.23445,873.7358C85.348465,873.7358,82.986404,876.03217,82.90492,878.91693L82.90492,878.91693L79.67796,993.1954C79.59477,996.13873,81.91356,998.5922,84.85689,998.67535C87.80037,998.7585,90.25386,996.4397,90.33699,993.4962L90.33699,993.4962L93.56401,879.21783L88.23448,884.3991L241.50926,884.39825C244.4539,884.39825,246.84099,882.01117,246.84093,879.0666L246.84093,879.0666L246.84093,879.06586C246.84093,876.12103,244.45387,873.7341,241.50926,873.7341C238.56465,873.7341,236.17757,876.12115,236.17757,879.06586 Z"/>
</g>
<g style="fill:rgb(255,255,255); fill-opacity:1.0; stroke-linejoin: miter">
<path d="M30.88832,823.248L85.58084,823.24866L140.27335,823.24927Q140.27335,958.78107,140.27335,1094.3129Q85.58084,1094.3135,30.888334,1094.3141Q30.88833,958.78107,30.88832,823.248"/>
</g>
<g style="fill:rgb(255,255,255); fill-opacity:1.0; stroke-linejoin: miter">
<path d="M389.02478,936.85065L298.74344,936.85004L208.46234,936.8496Q208.46227,884.5852,208.46217,832.3208Q298.74335,832.3201,389.02466,832.3195Q389.02466,884.5851,389.02478,936.85065"/>
</g>
<g style="fill:rgb(146,159,168); fill-opacity:1.0; stroke-linejoin: miter">
<path d="M-17.642733,561.28687L204.49379,561.28845L204.49379,593.8196L-17.642733,593.82117L-17.642733,561.28687"/>
</g>
<g style="fill:rgb(146,159,168); fill-opacity:1.0; stroke-linejoin: miter">
<path d="M-10.977081,612.32715L120.92807,612.32874L120.92807,631.63055L-10.977081,631.6323L-10.977081,612.32715"/>
</g>
<g style="fill:rgb(162,151,151); fill-opacity:1.0; stroke-linejoin: miter">
<path d="M825.9486,1174.4039L892.7611,1174.4054L959.57336,1174.4052Q959.57336,1194.108,959.57336,1213.8121Q892.76086,1213.8121,825.94836,1213.8124Q825.9486,1194.108,825.9486,1174.4039 Z"/>
</g>
<g style="fill:rgb(162,151,151); fill-opacity:1.0; stroke-linejoin: miter">
<path d="M219.91602,1152.5177L414.46948,1152.5189L609.0226,1152.5197Q609.0226,1178.2394,609.0226,1203.9591Q414.46948,1203.9598,219.91602,1203.9598Q219.91602,1178.2394,219.91602,1152.5177 Z"/>
</g>
<g style="fill:rgb(162,151,151); fill-opacity:1.0; stroke-linejoin: miter">
<path d="M-180.33545,1168.3026L-100.93469,1168.3041L-21.53418,1168.3048Q-21.53418,1187.2477,-21.53418,1206.1918Q-100.93469,1206.1923,-180.33545,1206.1927Q-180.33545,1187.2477,-180.33545,1168.3026 Z"/>
</g>
<g style="fill:rgb(26,26,26); fill-opacity:1.0; stroke-linejoin: miter">
<path d="M-58.62622,496.52112C-77.17078,496.52112,-92.10132,511.12927,-92.10132,529.2728L-92.101685,1128.3983C-92.101685,1145.6522,-94.53467,1159.7074,-78.826294,1161.0448L-188.84045,1161.0453C-201.86035,1161.0448,-195.20154,1171.1901,-195.20154,1183.7909L-195.20154,1198.954C-195.20154,1211.5546,-184.72034,1221.7001,-171.70068,1221.7001L968.0946,1221.7023C981.11414,1221.7003,991.59607,1211.5563,991.59607,1198.954L991.59607,1183.7919C991.59607,1171.1903,998.2543,1161.0453,985.2345,1161.0453L875.2201,1161.046C890.92883,1159.7081,888.496,1145.6525,888.496,1128.3998L888.4962,529.2728C888.4962,511.12952,873.56604,496.52112,855.0206,496.52112L-58.630127,496.52185 Z M230.58484,504.464C235.34387,504.464,239.2019,508.23914,239.2019,512.89514C239.2019,517.55115,235.34387,521.3258,230.58484,521.3258C225.82593,521.3258,221.96814,517.5514,221.96814,512.89514C221.96814,508.23914,225.82593,504.464,230.58484,504.464 Z M-59.44104,529.33606L855.8402,529.33655L855.83923,1128.3295L-59.441772,1128.33L-59.441162,529.33606 Z M249.40112,1161.1517L546.9966,1161.1522C546.5521,1167.4935,542.14,1172.4445,536.7224,1172.4445L259.6753,1172.4454C254.25696,1172.4445,249.84521,1167.4935,249.40112,1161.1517 Z M853.641,1179.0927C860.65,1179.0927,866.3319,1184.5927,866.3319,1191.3756C866.3319,1198.1588,860.6493,1203.6581,853.64075,1203.6581C846.63245,1203.6581,840.95056,1198.1588,840.95056,1191.3756C840.95056,1184.5927,846.63245,1179.0927,853.641,1179.0927 Z M893.66614,1179.0929C900.6742,1179.0929,906.3561,1184.5927,906.3561,1191.3759C906.3561,1198.1588,900.6747,1203.6586,893.6659,1203.6586C886.65735,1203.6586,880.97595,1198.1588,880.97595,1191.3759C880.97595,1184.5927,886.65735,1179.0929,893.66614,1179.0929 Z M933.692,1179.0929C940.7001,1179.0929,946.3812,1184.5927,946.3812,1191.3759C946.3812,1198.1588,940.7001,1203.6586,933.692,1203.6586C926.683,1203.6586,921.0006,1198.1588,921.0006,1191.3759C921.0006,1184.5927,926.683,1179.0929,933.692,1179.0929 Z M-144.55579,1187.2274L-77.96838,1187.2281C-74.71362,1187.2274,-72.09314,1189.0773,-72.09314,1191.3756C-72.09314,1193.673,-74.71362,1195.5236,-77.96838,1195.5236L-144.55579,1195.524C-147.81091,1195.5236,-150.43127,1193.673,-150.43127,1191.3756C-150.43127,1189.0773,-147.81091,1187.2274,-144.55579,1187.2274 Z"/>
</g>
<g style="fill:rgb(0,0,0); fill-opacity:0.3137255; stroke-linejoin: miter">
<path d="M1181.6842,1205.7723L1174.4877,1209.5865Q1151.7462,1214.7098,1090.0721,1218.9213L1056.8016,1220.9701Q1021.09753,1222.9618,975.66077,1224.7255Q930.22375,1226.4894,875.05334,1228.0253Q850.0177,1229.0458,698.53284,1231.7167Q636.4044,1232.6432,569.89233,1233.164Q436.86768,1234.2059,286.30652,1233.6259Q214.46094,1233.2203,149.00879,1232.4679Q-9.027344,1230.2833,-32.962646,1229.4298Q-144.68689,1226.8839,-230.8374,1222.9496Q-402.99976,1215.027,-393.2046,1204.6031Q-385.66492,1199.2123,-331.90112,1194.7863Q-324.9994,1193.5338,-232.08997,1188.64Q-191.51941,1186.7623,-141.2157,1185.1124Q-119.85437,1184.055,27.009521,1180.8561Q86.94568,1179.7269,151.26599,1179.0033Q279.90662,1177.556,426.08374,1177.7303Q577.27905,1177.9991,701.41956,1179.9161Q763.6752,1180.8419,819.53723,1182.1151Q953.598,1185.6014,972.7384,1186.715Q1066.535,1190.3463,1119.7284,1194.8307Q1178.3737,1199.5109,1181.6842,1205.7723"/>
</g>
</g>
</svg>